<svg width="57" height="58" viewBox="0 0 57 58" fill="none" xmlns="http://www.w3.org/2000/svg">
<rect y="0.904297" width="56.9521" height="56.9521" rx="28.4761" fill="#2078F7"/>
<path d="M19.4262 26.0692C20.4015 26.0692 21.1922 25.2785 21.1922 24.3032C21.1922 23.3279 20.4015 22.5373 19.4262 22.5373V26.0692ZM13.3474 25.7754L12.0789 24.5468L12.0789 24.5468L13.3474 25.7754ZM11.9215 29.3695L13.6873 29.3968C13.6875 29.3786 13.6875 29.3604 13.6873 29.3423L11.9215 29.3695ZM13.3474 32.9635L12.0789 34.1921H12.0789L13.3474 32.9635ZM16.8073 34.4575L16.8072 36.2234H16.8073V34.4575ZM34.4369 30.2633V28.4974H30.9049V30.2633H34.4369ZM19.4262 22.5373H16.8283V26.0692H19.4262V22.5373ZM16.8283 22.5373C15.0574 22.5373 13.3392 23.2455 12.0789 24.5468L14.6159 27.004C15.2009 26.4 15.9992 26.0692 16.8283 26.0692V22.5373ZM12.0789 24.5468C10.8373 25.8287 10.1274 27.5551 10.1558 29.3967L13.6873 29.3423C13.6736 28.4558 14.0121 27.6275 14.6159 27.004L12.0789 24.5468ZM10.1558 29.3422C10.1273 31.1839 10.8375 32.9105 12.0789 34.1921L14.6159 31.7349C14.0122 31.1116 13.6736 30.2831 13.6873 29.3968L10.1558 29.3422ZM12.0789 34.1921C13.3445 35.4989 15.014 36.2234 16.8072 36.2234L16.8073 32.6915C16.0004 32.6915 15.2374 32.3767 14.6159 31.7349L12.0789 34.1921ZM16.8073 36.2234H25.6071V32.6915H16.8073V36.2234ZM25.6071 36.2234C26.3273 36.2234 28.4008 36.2962 30.2807 35.6991C31.2458 35.3925 32.296 34.8715 33.1122 33.9573C33.9605 33.007 34.4369 31.764 34.4369 30.2633H30.9049C30.9049 30.9701 30.7007 31.3551 30.4774 31.6051C30.2221 31.8912 29.8099 32.1428 29.2114 32.3329C27.964 32.7291 26.5056 32.6915 25.6071 32.6915V36.2234Z" fill="white"/>
<path d="M37.9683 32.6933C36.993 32.6933 36.2024 33.4839 36.2024 34.4592C36.2024 35.4345 36.993 36.2252 37.9683 36.2252L37.9683 32.6933ZM44.0472 32.987L45.3157 34.2156L45.3157 34.2156L44.0472 32.987ZM45.473 29.393L43.7073 29.3657C43.707 29.3838 43.707 29.402 43.7073 29.4202L45.473 29.393ZM44.0472 25.7989L45.3157 24.5703L45.3157 24.5703L44.0472 25.7989ZM40.5873 24.305L40.5873 22.539L40.5873 22.539L40.5873 24.305ZM22.9577 28.4991L22.9577 30.2651L26.4896 30.2651L26.4896 28.4991L22.9577 28.4991ZM37.9683 36.2252L40.5662 36.2252L40.5662 32.6933L37.9683 32.6933L37.9683 36.2252ZM40.5662 36.2252C42.3371 36.2252 44.0553 35.5169 45.3157 34.2156L42.7786 31.7584C42.1936 32.3624 41.3954 32.6933 40.5662 32.6933L40.5662 36.2252ZM45.3157 34.2156C46.5572 32.9337 47.2672 31.2073 47.2388 29.3657L43.7073 29.4202C43.7209 30.3067 43.3824 31.135 42.7786 31.7584L45.3157 34.2156ZM47.2388 29.4203C47.2672 27.5785 46.557 25.852 45.3157 24.5703L42.7786 27.0275C43.3824 27.6509 43.721 28.4793 43.7073 29.3657L47.2388 29.4203ZM45.3157 24.5703C44.05 23.2636 42.3805 22.539 40.5873 22.539L40.5872 26.0709C41.3941 26.0709 42.1571 26.3858 42.7786 27.0275L45.3157 24.5703ZM40.5873 22.539L31.7875 22.539L31.7875 26.0709L40.5873 26.0709L40.5873 22.539ZM31.7875 22.539C31.0672 22.539 28.9937 22.4663 27.1139 23.0634C26.1488 23.3699 25.0985 23.8909 24.2823 24.8052C23.434 25.7554 22.9577 26.9984 22.9577 28.4991L26.4896 28.4991C26.4896 27.7924 26.6938 27.4074 26.9171 27.1573C27.1724 26.8713 27.5846 26.6197 28.1831 26.4295C29.4305 26.0333 30.8889 26.0709 31.7875 26.0709L31.7875 22.539Z" fill="white"/>
</svg>
